{
  "accessors": [
    {
      "bufferView": 2,
      "componentType": 5126,
      "count": 4529,
      "max": [
        0.02181299962103367,
        0.0519540011882782,
        0.126350998878479
      ],
      "min": [
        -0.02181299962103367,
        -0.2903580069541931,
        -0.0852380022406578
      ],
      "type": "VEC3"
    },
    {
      "bufferView": 2,
      "byteOffset": 54348,
      "componentType": 5126,
      "count": 4529,
      "max": [
        0.9999908208847046,
        0.9999847412109375,
        0.9999852180480957
      ],
      "min": [
        -0.9999905824661255,
        -0.9999847412109375,
        -0.9999904632568359
      ],
      "type": "VEC3"
    },
    {
      "bufferView": 1,
      "componentType": 5126,
      "count": 4529,
      "max": [
        0.9980469942092896,
        0.9978280067443848
      ],
      "min": [
        0.006233000196516514,
        0.005371000152081251
      ],
      "type": "VEC2"
    },
    {
      "bufferView": 0,
      "componentType": 5125,
      "count": 14973,
      "type": "SCALAR"
    }
  ],
  "asset": {
    "extras": {
      "author": "Wicked_Vixx (https://sketchfab.com/tylukex)",
      "license": "CC-BY-4.0 (http://creativecommons.org/licenses/by/4.0/)",
      "source": "https://sketchfab.com/3d-models/hand-canon-fortnite-low-poly-303ee03cb0c84880b436c0cd9691902b",
      "title": "Hand Canon - Fortnite (Low Poly)"
    },
    "generator": "Sketchfab-16.56.0",
    "version": "2.0"
  },
  "bufferViews": [
    {
      "buffer": 0,
      "byteLength": 59892,
      "name": "floatBufferViews",
      "target": 34963
    },
    {
      "buffer": 0,
      "byteLength": 36232,
      "byteOffset": 59892,
      "byteStride": 8,
      "name": "floatBufferViews",
      "target": 34962
    },
    {
      "buffer": 0,
      "byteLength": 108696,
      "byteOffset": 96124,
      "byteStride": 12,
      "name": "floatBufferViews",
      "target": 34962
    }
  ],
  "buffers": [
    {
      "byteLength": 204820,
      "uri": "scene.bin"
    }
  ],
  "images": [
    {
      "uri": "textures/MI_HandCannon_baseColor.png"
    }
  ],
  "materials": [
    {
      "doubleSided": true,
      "name": "MI_HandCannon",
      "pbrMetallicRoughness": {
        "baseColorTexture": {
          "index": 0
        },
        "metallicFactor": 0.0,
        "roughnessFactor": 0.2761882702880619
      }
    }
  ],
  "meshes": [
    {
      "name": "Object_0",
      "primitives": [
        {
          "attributes": {
            "NORMAL": 1,
            "POSITION": 0,
            "TEXCOORD_0": 2
          },
          "indices": 3,
          "material": 0,
          "mode": 4
        }
      ]
    }
  ],
  "nodes": [
    {
      "children": [
        1
      ],
      "matrix": [
        1.0,
        0.0,
        0.0,
        0.0,
        0.0,
        2.220446049250313e-16,
        -1.0,
        0.0,
        0.0,
        1.0,
        2.220446049250313e-16,
        0.0,
        0.0,
        0.0,
        0.0,
        1.0
      ],
      "name": "Sketchfab_model"
    },
    {
      "children": [
        2
      ],
      "name": "88d24de766234e4a8f90cdf325fb4ec5.obj.cleaner.materialmerger.gles"
    },
    {
      "mesh": 0,
      "name": "Object_2"
    }
  ],
  "samplers": [
    {
      "magFilter": 9729,
      "minFilter": 9987,
      "wrapS": 10497,
      "wrapT": 10497
    }
  ],
  "scene": 0,
  "scenes": [
    {
      "name": "Sketchfab_Scene",
      "nodes": [
        0
      ]
    }
  ],
  "textures": [
    {
      "sampler": 0,
      "source": 0
    }
  ]
}
